<svg width="178" height="216" viewBox="0 0 178 216" fill="none" xmlns="http://www.w3.org/2000/svg">
<path d="M107.692 169.853C90.4327 171.873 78.9838 173.953 68.8487 177.851C58.7079 181.75 49.9126 187.457 37.9408 196.681C20.2677 210.294 -1.72203 217.105 -21.1384 214.041C-40.5167 210.982 -57.4005 198.077 -64.9248 172.091C-70.7238 152.058 -70.83 129.6 -66.2626 109.298C-61.6939 88.9898 -52.4614 70.8906 -39.6356 59.5341C-17.9654 40.3452 12.9532 29.0135 44.7119 26.1961C76.4703 23.3786 109.007 29.0808 133.905 43.8865L134.161 43.4568L133.905 43.8865C176.856 69.4237 190.488 118.41 163.866 150.238C154.887 160.972 140.747 165.985 107.692 169.853Z" stroke="#7065F0" stroke-opacity="0.12"/>
<path d="M88.6916 144.853C71.4327 146.873 59.9838 148.953 49.8487 152.851C39.7079 156.75 30.9126 162.457 18.9408 171.681C1.26772 185.294 -20.722 192.105 -40.1384 189.041C-59.5167 185.982 -76.4005 173.077 -83.9248 147.091C-89.7238 127.058 -89.83 104.6 -85.2626 84.2975C-80.6939 63.9898 -71.4614 45.8906 -58.6356 34.5341C-36.9654 15.3452 -6.04681 4.01353 25.7119 1.19606C57.4703 -1.62139 90.0075 4.08077 114.905 18.8865L115.161 18.4568L114.905 18.8865C157.856 44.4237 171.488 93.4101 144.866 125.238C135.887 135.972 121.747 140.985 88.6916 144.853Z" stroke="#7065F0" stroke-opacity="0.12"/>
</svg>
