<svg width="188" height="24" viewBox="0 0 188 24" fill="none" xmlns="http://www.w3.org/2000/svg">
<path d="M32.9609 23.6693V1.09141H42.2875C43.9779 1.09141 45.4368 1.39642 46.6642 2.00643C47.8989 2.6091 48.8507 3.47634 49.5195 4.60818C50.1883 5.73266 50.5227 7.06661 50.5227 8.61001C50.5227 10.1755 50.181 11.5057 49.4975 12.6008C48.8139 13.6886 47.8438 14.5191 46.587 15.0923C45.3303 15.6582 43.842 15.9412 42.1222 15.9412H36.2241V11.6417H41.1079C41.9311 11.6417 42.6183 11.5351 43.1695 11.322C43.728 11.1015 44.1506 10.7708 44.4373 10.3298C44.7239 9.88149 44.8672 9.30822 44.8672 8.61001C44.8672 7.9118 44.7239 7.33486 44.4373 6.87919C44.1506 6.41617 43.728 6.07074 43.1695 5.8429C42.6109 5.60772 41.9237 5.49013 41.1079 5.49013H38.418V23.6693H32.9609ZM45.672 13.3505L51.2944 23.6693H45.3413L39.8291 13.3505H45.672Z" fill="#000929"/>
<path d="M61.0978 23.989C59.3266 23.989 57.7979 23.6399 56.5117 22.9417C55.2329 22.2361 54.248 21.2329 53.5572 19.932C52.8737 18.6238 52.5319 17.0694 52.5319 15.2687C52.5319 13.5195 52.8773 11.9908 53.5682 10.6826C54.2591 9.36702 55.2329 8.34543 56.4896 7.61782C57.7464 6.88287 59.2274 6.51539 60.9325 6.51539C62.1378 6.51539 63.2402 6.7028 64.2398 7.07763C65.2393 7.45246 66.1029 8.00735 66.8305 8.74231C67.5581 9.47726 68.124 10.3849 68.5282 11.4653C68.9325 12.5384 69.1346 13.7694 69.1346 15.1585V16.5034H54.4171V13.3725H64.1185C64.1111 12.7993 63.9752 12.2885 63.7106 11.8401C63.446 11.3918 63.0822 11.0427 62.6192 10.7928C62.1635 10.5356 61.638 10.407 61.0427 10.407C60.44 10.407 59.8998 10.5429 59.4221 10.8149C58.9444 11.0795 58.5659 11.4433 58.2866 11.9063C58.0073 12.362 57.8603 12.8801 57.8456 13.4607V16.6468C57.8456 17.3376 57.9816 17.944 58.2535 18.4658C58.5255 18.9802 58.9113 19.3808 59.4111 19.6674C59.9109 19.9541 60.5062 20.0974 61.197 20.0974C61.6748 20.0974 62.1084 20.0312 62.4979 19.8989C62.8874 19.7667 63.2218 19.5719 63.5011 19.3147C63.7804 19.0574 63.9899 18.7414 64.1295 18.3666L69.0795 18.5099C68.8737 19.6197 68.4217 20.5861 67.7235 21.4093C67.0326 22.2251 66.1249 22.8608 65.0004 23.3165C63.876 23.7648 62.5751 23.989 61.0978 23.989Z" fill="#000929"/>
<path d="M76.6614 23.9559C75.5811 23.9559 74.6219 23.7758 73.7841 23.4157C72.9536 23.0482 72.2958 22.497 71.8107 21.7621C71.333 21.0198 71.0941 20.09 71.0941 18.9729C71.0941 18.0322 71.2595 17.2384 71.5902 16.5916C71.921 15.9449 72.3766 15.4194 72.9573 15.0152C73.5379 14.6109 74.2067 14.3059 74.9637 14.1001C75.7207 13.887 76.5292 13.7437 77.3891 13.6702C78.3518 13.582 79.1272 13.4901 79.7152 13.3946C80.3032 13.2917 80.7294 13.1484 80.994 12.9646C81.2659 12.7735 81.4019 12.5053 81.4019 12.1599V12.1047C81.4019 11.5388 81.2071 11.1015 80.8176 10.7928C80.4281 10.4842 79.9026 10.3298 79.2411 10.3298C78.5282 10.3298 77.955 10.4842 77.5213 10.7928C77.0877 11.1015 76.8121 11.5278 76.6945 12.0717L71.7225 11.8953C71.8695 10.8663 72.248 9.94764 72.858 9.13918C73.4754 8.32338 74.3206 7.68397 75.3936 7.22095C76.474 6.75058 77.7712 6.51539 79.2852 6.51539C80.3656 6.51539 81.3615 6.64401 82.2728 6.90124C83.1842 7.15113 83.9779 7.5186 84.6541 8.00367C85.3303 8.4814 85.8521 9.06936 86.2196 9.76757C86.5944 10.4658 86.7818 11.2632 86.7818 12.1599V23.6693H81.7106V21.3101H81.5783C81.277 21.8833 80.8911 22.3684 80.4207 22.7653C79.9577 23.1622 79.4102 23.4598 78.7781 23.6582C78.1534 23.8567 77.4478 23.9559 76.6614 23.9559ZM78.3261 20.4281C78.9067 20.4281 79.4286 20.3105 79.8916 20.0753C80.3619 19.8401 80.7368 19.5168 81.0161 19.1052C81.2953 18.6863 81.435 18.2012 81.435 17.65V16.0404C81.2806 16.1213 81.0932 16.1948 80.8727 16.2609C80.6596 16.3271 80.4244 16.3895 80.1672 16.4483C79.91 16.5071 79.6454 16.5586 79.3734 16.6027C79.1015 16.6468 78.8406 16.6872 78.5907 16.7239C78.0836 16.8048 77.65 16.9297 77.2898 17.0988C76.9371 17.2678 76.6651 17.4883 76.474 17.7602C76.2903 18.0248 76.1984 18.3408 76.1984 18.7083C76.1984 19.2669 76.3969 19.6932 76.7937 19.9871C77.198 20.2811 77.7088 20.4281 78.3261 20.4281Z" fill="#000929"/>
<path d="M95.469 1.09141V23.6693H90.0781V1.09141H95.469Z" fill="#000929"/>
<path d="M106.816 23.989C105.045 23.989 103.516 23.6399 102.23 22.9417C100.951 22.2361 99.966 21.2329 99.2751 19.932C98.5916 18.6238 98.2499 17.0694 98.2499 15.2687C98.2499 13.5195 98.5953 11.9908 99.2862 10.6826C99.977 9.36702 100.951 8.34543 102.208 7.61782C103.464 6.88287 104.945 6.51539 106.65 6.51539C107.856 6.51539 108.958 6.7028 109.958 7.07763C110.957 7.45246 111.821 8.00735 112.548 8.74231C113.276 9.47726 113.842 10.3849 114.246 11.4653C114.65 12.5384 114.853 13.7694 114.853 15.1585V16.5034H100.135V13.3725H109.836C109.829 12.7993 109.693 12.2885 109.429 11.8401C109.164 11.3918 108.8 11.0427 108.337 10.7928C107.881 10.5356 107.356 10.407 106.761 10.407C106.158 10.407 105.618 10.5429 105.14 10.8149C104.662 11.0795 104.284 11.4433 104.005 11.9063C103.725 12.362 103.578 12.8801 103.564 13.4607V16.6468C103.564 17.3376 103.7 17.944 103.972 18.4658C104.243 18.9802 104.629 19.3808 105.129 19.6674C105.629 19.9541 106.224 20.0974 106.915 20.0974C107.393 20.0974 107.826 20.0312 108.216 19.8989C108.605 19.7667 108.94 19.5719 109.219 19.3147C109.498 19.0574 109.708 18.7414 109.847 18.3666L114.797 18.5099C114.592 19.6197 114.14 20.5861 113.441 21.4093C112.751 22.2251 111.843 22.8608 110.718 23.3165C109.594 23.7648 108.293 23.989 106.816 23.989Z" fill="#000929"/>
<path d="M132.39 11.9063L127.44 12.0386C127.388 11.6858 127.248 11.3735 127.021 11.1015C126.793 10.8222 126.495 10.6054 126.128 10.4511C125.768 10.2894 125.349 10.2085 124.871 10.2085C124.246 10.2085 123.713 10.3335 123.272 10.5834C122.839 10.8333 122.626 11.1713 122.633 11.5976C122.626 11.9283 122.758 12.215 123.03 12.4575C123.309 12.7 123.805 12.8948 124.518 13.0418L127.781 13.6592C129.472 13.9825 130.729 14.5191 131.552 15.2687C132.382 16.0184 132.801 17.0106 132.808 18.2453C132.801 19.4065 132.456 20.4171 131.772 21.277C131.096 22.1369 130.17 22.8057 128.994 23.2834C127.818 23.7538 126.473 23.989 124.959 23.989C122.541 23.989 120.634 23.4929 119.237 22.5007C117.848 21.5011 117.055 20.1635 116.856 18.4878L122.181 18.3555C122.299 18.9729 122.604 19.4433 123.096 19.7667C123.588 20.09 124.217 20.2517 124.981 20.2517C125.672 20.2517 126.234 20.1231 126.668 19.8659C127.102 19.6086 127.322 19.2669 127.329 18.8406C127.322 18.4584 127.153 18.1534 126.822 17.9256C126.491 17.6904 125.973 17.5067 125.268 17.3744L122.313 16.8121C120.616 16.5034 119.351 15.9339 118.521 15.1034C117.69 14.2655 117.279 13.1998 117.286 11.9063C117.279 10.7745 117.58 9.80799 118.19 9.00689C118.8 8.19844 119.667 7.58108 120.792 7.1548C121.916 6.72853 123.243 6.51539 124.772 6.51539C127.065 6.51539 128.873 6.99679 130.196 7.95958C131.519 8.91502 132.25 10.2306 132.39 11.9063Z" fill="#000929"/>
<path d="M144.26 6.73588V9.82269H134.525V6.73588H144.26ZM136.929 2.67892H140.92V18.576C140.92 19.1125 141 19.5241 141.162 19.8108C141.331 20.09 141.552 20.2811 141.824 20.384C142.096 20.4869 142.397 20.5384 142.728 20.5384C142.977 20.5384 143.205 20.52 143.411 20.4832C143.624 20.4465 143.786 20.4134 143.896 20.384L144.569 23.5039C144.356 23.5774 144.051 23.6582 143.654 23.7464C143.264 23.8346 142.786 23.8861 142.22 23.9008C141.221 23.9302 140.321 23.7795 139.52 23.4488C138.718 23.1107 138.083 22.5889 137.612 21.8833C137.149 21.1778 136.921 20.2958 136.929 19.2375V2.67892Z" fill="#000929"/>
<path d="M147.598 23.6693V6.73588H151.588V23.6693H147.598ZM149.604 4.33257C148.972 4.33257 148.428 4.12311 147.972 3.70418C147.517 3.2779 147.289 2.76711 147.289 2.1718C147.289 1.56913 147.517 1.05834 147.972 0.639411C148.428 0.213137 148.972 0 149.604 0C150.243 0 150.787 0.213137 151.236 0.639411C151.691 1.05834 151.919 1.56913 151.919 2.1718C151.919 2.76711 151.691 3.2779 151.236 3.70418C150.787 4.12311 150.243 4.33257 149.604 4.33257Z" fill="#000929"/>
<path d="M163.079 24C161.388 24 159.937 23.6288 158.724 22.8865C157.519 22.1442 156.589 21.119 155.935 19.8108C155.288 18.4952 154.965 16.9812 154.965 15.2687C154.965 13.5489 155.295 12.0312 155.957 10.7157C156.618 9.39274 157.552 8.3638 158.757 7.62885C159.97 6.88654 161.403 6.51539 163.056 6.51539C164.431 6.51539 165.647 6.76895 166.706 7.27607C167.771 7.77584 168.62 8.48507 169.252 9.40377C169.884 10.3151 170.244 11.3808 170.333 12.6008H166.518C166.364 11.785 165.996 11.1052 165.416 10.5613C164.842 10.0101 164.074 9.7345 163.112 9.7345C162.296 9.7345 161.579 9.95498 160.962 10.396C160.344 10.8296 159.863 11.4543 159.518 12.2701C159.18 13.0859 159.011 14.0634 159.011 15.2026C159.011 16.3565 159.18 17.3486 159.518 18.1791C159.856 19.0023 160.33 19.638 160.94 20.0864C161.557 20.5273 162.281 20.7478 163.112 20.7478C163.7 20.7478 164.225 20.6376 164.688 20.4171C165.158 20.1893 165.552 19.8622 165.868 19.4359C166.184 19.0096 166.401 18.4915 166.518 17.8815H170.333C170.237 19.0795 169.884 20.1415 169.274 21.0675C168.664 21.9862 167.834 22.7065 166.783 23.2283C165.732 23.7428 164.497 24 163.079 24Z" fill="#000929"/>
<path d="M186.993 11.2118L183.355 11.6086C183.252 11.2412 183.072 10.8957 182.815 10.5723C182.565 10.249 182.227 9.98806 181.801 9.78962C181.374 9.59118 180.853 9.49196 180.235 9.49196C179.405 9.49196 178.706 9.67203 178.141 10.0322C177.582 10.3923 177.306 10.859 177.314 11.4322C177.306 11.9247 177.486 12.3252 177.854 12.6339C178.229 12.9426 178.846 13.1961 179.706 13.3946L182.594 14.0119C184.197 14.3574 185.387 14.9049 186.166 15.6546C186.953 16.4042 187.35 17.3854 187.357 18.5981C187.35 19.6638 187.037 20.6045 186.42 21.4203C185.81 22.2288 184.961 22.8608 183.873 23.3165C182.785 23.7722 181.536 24 180.125 24C178.052 24 176.384 23.5664 175.12 22.6991C173.856 21.8245 173.102 20.6082 172.86 19.0501L176.751 18.6752C176.928 19.4396 177.303 20.0165 177.876 20.4061C178.449 20.7956 179.195 20.9904 180.114 20.9904C181.062 20.9904 181.823 20.7956 182.396 20.4061C182.977 20.0165 183.267 19.5351 183.267 18.9619C183.267 18.4768 183.079 18.0763 182.705 17.7602C182.337 17.4442 181.764 17.2017 180.985 17.0326L178.096 16.4263C176.472 16.0882 175.271 15.5186 174.491 14.7175C173.712 13.909 173.327 12.8875 173.334 11.6527C173.327 10.6091 173.61 9.7051 174.183 8.94074C174.763 8.16904 175.568 7.57373 176.597 7.1548C177.633 6.72853 178.828 6.51539 180.18 6.51539C182.164 6.51539 183.726 6.93799 184.865 7.78319C186.012 8.62839 186.721 9.77125 186.993 11.2118Z" fill="#000929"/>
<path d="M12.3826 13.6323C10.3207 13.6323 8.63892 15.3141 8.63892 17.376V23.9995H16.1263V17.376C16.1263 15.3141 14.4445 13.6323 12.3826 13.6323Z" fill="#7065F0"/>
<path d="M22.923 6.42189L14.8596 0.777538C13.3736 -0.259179 11.3808 -0.259179 9.90641 0.777538L1.84305 6.42189C0.691145 7.22822 0 8.55291 0 9.95824V19.6803C0 22.0648 1.93521 24 4.31965 24H6.91145V17.3765C6.91145 14.3585 9.36501 11.905 12.383 11.905C15.401 11.905 17.8546 14.3585 17.8546 17.3765V24H20.4464C22.8308 24 24.766 22.0648 24.766 19.6803V9.95824C24.766 8.55291 24.0749 7.22822 22.923 6.42189Z" fill="#7065F0"/>
</svg>
