<svg width="32" height="32" viewBox="0 0 32 32" fill="none" xmlns="http://www.w3.org/2000/svg">
<g clip-path="url(#clip0_309_2565)">
<path fill-rule="evenodd" clip-rule="evenodd" d="M2.66602 15.9998H5.62891V26.3702C5.62891 27.156 5.94107 27.9097 6.49674 28.4653C7.0524 29.021 7.80604 29.3332 8.59187 29.3332H23.4067C24.1925 29.3332 24.9462 29.021 25.5018 28.4653C26.0575 27.9097 26.3696 27.156 26.3696 26.3702V15.9998H26.3697H29.3327L15.9993 2.6665L2.66602 15.9998Z" fill="white"/>
<path d="M5.62891 15.9998H6.62891C6.62891 15.4476 6.18119 14.9998 5.62891 14.9998V15.9998ZM2.66602 15.9998L1.95891 15.2927C1.67291 15.5787 1.58736 16.0088 1.74214 16.3825C1.89692 16.7562 2.26155 16.9998 2.66602 16.9998L2.66602 15.9998ZM6.49674 28.4653L7.20385 27.7582L7.20384 27.7582L6.49674 28.4653ZM25.5018 28.4653L24.7947 27.7582L24.7947 27.7582L25.5018 28.4653ZM26.3696 15.9998V14.9998C25.8174 14.9998 25.3696 15.4476 25.3696 15.9998H26.3696ZM29.3327 15.9998V16.9998C29.7371 16.9998 30.1018 16.7562 30.2566 16.3825C30.4113 16.0088 30.3258 15.5787 30.0398 15.2927L29.3327 15.9998ZM15.9993 2.6665L16.7065 1.9594C16.3159 1.56887 15.6828 1.56887 15.2922 1.9594L15.9993 2.6665ZM5.62891 14.9998H2.66602V16.9998H5.62891V14.9998ZM4.62891 15.9998V26.3702H6.62891V15.9998H4.62891ZM4.62891 26.3702C4.62891 27.4213 5.04643 28.4292 5.78963 29.1724L7.20384 27.7582C6.83572 27.3901 6.62891 26.8908 6.62891 26.3702H4.62891ZM5.78963 29.1724C6.53283 29.9156 7.54083 30.3332 8.59187 30.3332V28.3332C8.07126 28.3332 7.57197 28.1264 7.20385 27.7582L5.78963 29.1724ZM8.59187 30.3332H23.4067V28.3332H8.59187V30.3332ZM23.4067 30.3332C24.4577 30.3332 25.4657 29.9156 26.2089 29.1724L24.7947 27.7582C24.4266 28.1264 23.9273 28.3332 23.4067 28.3332V30.3332ZM26.2089 29.1724C26.9521 28.4292 27.3696 27.4213 27.3696 26.3702H25.3696C25.3696 26.8908 25.1628 27.3901 24.7947 27.7582L26.2089 29.1724ZM27.3696 26.3702V15.9998H25.3696V26.3702H27.3696ZM26.3697 14.9998H26.3696V16.9998H26.3697V14.9998ZM29.3327 14.9998H26.3697V16.9998H29.3327V14.9998ZM15.2922 3.37361L28.6256 16.7069L30.0398 15.2927L16.7065 1.9594L15.2922 3.37361ZM3.37312 16.7069L16.7065 3.37361L15.2922 1.9594L1.95891 15.2927L3.37312 16.7069Z" fill="white"/>
<path d="M12 18.0002L14.6667 20.6668L20 15.3335" stroke="#7065F0" stroke-width="2" stroke-linecap="round" stroke-linejoin="round"/>
</g>
<defs>
<clipPath id="clip0_309_2565">
<rect width="32" height="32" fill="white"/>
</clipPath>
</defs>
</svg>
