<svg width="32" height="32" viewBox="0 0 32 32" fill="none" xmlns="http://www.w3.org/2000/svg">
<g clip-path="url(#clip0_309_2583)">
<g filter="url(#filter0_d_309_2583)">
<path d="M6.66602 28V6.66667C6.66602 5.95942 6.94697 5.28115 7.44706 4.78105C7.94716 4.28095 8.62544 4 9.33268 4H22.666C23.3733 4 24.0515 4.28095 24.5516 4.78105C25.0517 5.28115 25.3327 5.95942 25.3327 6.66667V28L21.3327 25.3333L18.666 28L15.9993 25.3333L13.3327 28L10.666 25.3333L6.66602 28Z" fill="white"/>
<path d="M6.66602 28V6.66667C6.66602 5.95942 6.94697 5.28115 7.44706 4.78105C7.94716 4.28095 8.62544 4 9.33268 4H22.666C23.3733 4 24.0515 4.28095 24.5516 4.78105C25.0517 5.28115 25.3327 5.95942 25.3327 6.66667V28L21.3327 25.3333L18.666 28L15.9993 25.3333L13.3327 28L10.666 25.3333L6.66602 28Z" stroke="white" stroke-width="2" stroke-linecap="round" stroke-linejoin="round"/>
</g>
<g filter="url(#filter1_d_309_2583)">
<path d="M18.6673 10.6665H15.334C14.8036 10.6665 14.2948 10.8772 13.9198 11.2523C13.5447 11.6274 13.334 12.1361 13.334 12.6665C13.334 13.1969 13.5447 13.7056 13.9198 14.0807C14.2948 14.4558 14.8036 14.6665 15.334 14.6665H16.6673C17.1978 14.6665 17.7065 14.8772 18.0815 15.2523C18.4566 15.6274 18.6673 16.1361 18.6673 16.6665C18.6673 17.1969 18.4566 17.7056 18.0815 18.0807C17.7065 18.4558 17.1978 18.6665 16.6673 18.6665H13.334M16.0007 18.6665V20.6665M16.0007 8.6665V10.6665" stroke="#7065F0" stroke-width="2" stroke-linecap="round" stroke-linejoin="round" shape-rendering="crispEdges"/>
</g>
</g>
<defs>
<filter id="filter0_d_309_2583" x="3.66602" y="1" width="28.666" height="34" filterUnits="userSpaceOnUse" color-interpolation-filters="sRGB">
<feFlood flood-opacity="0" result="BackgroundImageFix"/>
<feColorMatrix in="SourceAlpha" type="matrix" values="0 0 0 0 0 0 0 0 0 0 0 0 0 0 0 0 0 0 127 0" result="hardAlpha"/>
<feOffset dx="2" dy="2"/>
<feGaussianBlur stdDeviation="2"/>
<feComposite in2="hardAlpha" operator="out"/>
<feColorMatrix type="matrix" values="0 0 0 0 0.439216 0 0 0 0 0.396078 0 0 0 0 0.941176 0 0 0 0.1 0"/>
<feBlend mode="normal" in2="BackgroundImageFix" result="effect1_dropShadow_309_2583"/>
<feBlend mode="normal" in="SourceGraphic" in2="effect1_dropShadow_309_2583" result="shape"/>
</filter>
<filter id="filter1_d_309_2583" x="10.334" y="5.6665" width="15.334" height="22" filterUnits="userSpaceOnUse" color-interpolation-filters="sRGB">
<feFlood flood-opacity="0" result="BackgroundImageFix"/>
<feColorMatrix in="SourceAlpha" type="matrix" values="0 0 0 0 0 0 0 0 0 0 0 0 0 0 0 0 0 0 127 0" result="hardAlpha"/>
<feOffset dx="2" dy="2"/>
<feGaussianBlur stdDeviation="2"/>
<feComposite in2="hardAlpha" operator="out"/>
<feColorMatrix type="matrix" values="0 0 0 0 0.439216 0 0 0 0 0.396078 0 0 0 0 0.941176 0 0 0 0.1 0"/>
<feBlend mode="normal" in2="BackgroundImageFix" result="effect1_dropShadow_309_2583"/>
<feBlend mode="normal" in="SourceGraphic" in2="effect1_dropShadow_309_2583" result="shape"/>
</filter>
<clipPath id="clip0_309_2583">
<rect width="32" height="32" fill="white"/>
</clipPath>
</defs>
</svg>
