<svg width="16" height="16" viewBox="0 0 16 16" fill="none" xmlns="http://www.w3.org/2000/svg">
<path d="M6.66602 10.3335C6.39268 10.3335 6.16602 10.5602 6.16602 10.8335V11.8335C6.16602 12.1068 6.39268 12.3335 6.66602 12.3335C6.93935 12.3335 7.16602 12.1068 7.16602 11.8335V10.8335C7.16602 10.5602 6.93935 10.3335 6.66602 10.3335Z" fill="white"/>
<path d="M14.6673 14.1668H14.0007V6.65348C14.0007 6.24014 13.814 5.85348 13.4873 5.60014L8.82065 1.97348C8.34065 1.59348 7.66065 1.59348 7.18065 1.97348L2.51398 5.60014C2.18732 5.85348 2.00065 6.24014 2.00065 6.64681L1.96732 14.1668H1.33398C1.06065 14.1668 0.833984 14.3868 0.833984 14.6668C0.833984 14.9401 1.06065 15.1668 1.33398 15.1668H14.6673C14.9407 15.1668 15.1673 14.9401 15.1673 14.6668C15.1673 14.3868 14.9407 14.1668 14.6673 14.1668ZM7.00065 4.50014H9.00065C9.27398 4.50014 9.50065 4.72681 9.50065 5.00014C9.50065 5.27348 9.27398 5.50014 9.00065 5.50014H7.00065C6.72732 5.50014 6.50065 5.27348 6.50065 5.00014C6.50065 4.72681 6.72732 4.50014 7.00065 4.50014ZM11.334 14.1668H4.66732V8.33348C4.66732 7.78014 5.11398 7.33348 5.66732 7.33348H10.334C10.8873 7.33348 11.334 7.78014 11.334 8.33348V14.1668Z" fill="white"/>
</svg>
