<svg width="32" height="32" viewBox="0 0 32 32" fill="none" xmlns="http://www.w3.org/2000/svg">
<g clip-path="url(#clip0_309_2606)">
<g filter="url(#filter0_d_309_2606)">
<path d="M5.33398 10.6668V8.00016C5.33398 7.29292 5.61494 6.61464 6.11503 6.11454C6.61513 5.61445 7.29341 5.3335 8.00065 5.3335H10.6673" stroke="white" stroke-width="2" stroke-linecap="round" stroke-linejoin="round" shape-rendering="crispEdges"/>
</g>
<g filter="url(#filter1_d_309_2606)">
<path d="M5.33398 21.3335V24.0002C5.33398 24.7074 5.61494 25.3857 6.11503 25.8858C6.61513 26.3859 7.29341 26.6668 8.00065 26.6668H10.6673" stroke="white" stroke-width="2" stroke-linecap="round" stroke-linejoin="round" shape-rendering="crispEdges"/>
</g>
<path d="M21.334 5.3335H24.0007C24.7079 5.3335 25.3862 5.61445 25.8863 6.11454C26.3864 6.61464 26.6673 7.29292 26.6673 8.00016V10.6668" stroke="white" stroke-width="2" stroke-linecap="round" stroke-linejoin="round"/>
<path d="M21.334 26.6668H24.0007C24.7079 26.6668 25.3862 26.3859 25.8863 25.8858C26.3864 25.3857 26.6673 24.7074 26.6673 24.0002V21.3335" stroke="white" stroke-width="2" stroke-linecap="round" stroke-linejoin="round"/>
<path d="M15.9993 24L11.3327 17.3333C10.8834 16.5213 10.6538 15.6062 10.6665 14.6784C10.6792 13.7505 10.9338 12.842 11.4051 12.0426C11.8763 11.2433 12.548 10.5807 13.3538 10.1204C14.1595 9.66008 15.0714 9.41797 15.9993 9.41797C16.9273 9.41797 17.8392 9.66008 18.6449 10.1204C19.4507 10.5807 20.1224 11.2433 20.5936 12.0426C21.0649 12.842 21.3195 13.7505 21.3322 14.6784C21.3449 15.6062 21.1153 16.5213 20.666 17.3333L15.9993 24Z" fill="white" stroke="white" stroke-width="2" stroke-linecap="round" stroke-linejoin="round"/>
<path d="M16 14.6665V14.6798" stroke="#7065F0" stroke-width="6" stroke-linecap="round" stroke-linejoin="round"/>
</g>
<defs>
<filter id="filter0_d_309_2606" x="2.33398" y="2.3335" width="15.334" height="15.3335" filterUnits="userSpaceOnUse" color-interpolation-filters="sRGB">
<feFlood flood-opacity="0" result="BackgroundImageFix"/>
<feColorMatrix in="SourceAlpha" type="matrix" values="0 0 0 0 0 0 0 0 0 0 0 0 0 0 0 0 0 0 127 0" result="hardAlpha"/>
<feOffset dx="2" dy="2"/>
<feGaussianBlur stdDeviation="2"/>
<feComposite in2="hardAlpha" operator="out"/>
<feColorMatrix type="matrix" values="0 0 0 0 0.439216 0 0 0 0 0.396078 0 0 0 0 0.941176 0 0 0 0.1 0"/>
<feBlend mode="normal" in2="BackgroundImageFix" result="effect1_dropShadow_309_2606"/>
<feBlend mode="normal" in="SourceGraphic" in2="effect1_dropShadow_309_2606" result="shape"/>
</filter>
<filter id="filter1_d_309_2606" x="2.33398" y="18.3335" width="15.334" height="15.3335" filterUnits="userSpaceOnUse" color-interpolation-filters="sRGB">
<feFlood flood-opacity="0" result="BackgroundImageFix"/>
<feColorMatrix in="SourceAlpha" type="matrix" values="0 0 0 0 0 0 0 0 0 0 0 0 0 0 0 0 0 0 127 0" result="hardAlpha"/>
<feOffset dx="2" dy="2"/>
<feGaussianBlur stdDeviation="2"/>
<feComposite in2="hardAlpha" operator="out"/>
<feColorMatrix type="matrix" values="0 0 0 0 0.439216 0 0 0 0 0.396078 0 0 0 0 0.941176 0 0 0 0.1 0"/>
<feBlend mode="normal" in2="BackgroundImageFix" result="effect1_dropShadow_309_2606"/>
<feBlend mode="normal" in="SourceGraphic" in2="effect1_dropShadow_309_2606" result="shape"/>
</filter>
<clipPath id="clip0_309_2606">
<rect width="32" height="32" fill="white"/>
</clipPath>
</defs>
</svg>
