<svg width="16" height="16" viewBox="0 0 16 16" fill="none" xmlns="http://www.w3.org/2000/svg">
<path d="M12.3605 2.78009L8.69385 1.40676C8.31385 1.26676 7.69385 1.26676 7.31385 1.40676L3.64719 2.78009C2.94052 3.04676 2.36719 3.87343 2.36719 4.62676V10.0268C2.36719 10.5668 2.72052 11.2801 3.15385 11.6001L6.82052 14.3401C7.46719 14.8268 8.52719 14.8268 9.17385 14.3401L12.8405 11.6001C13.2739 11.2734 13.6272 10.5668 13.6272 10.0268V4.62676C13.6339 3.87343 13.0605 3.04676 12.3605 2.78009ZM8.50052 8.58009V10.3334C8.50052 10.6068 8.27385 10.8334 8.00052 10.8334C7.72719 10.8334 7.50052 10.6068 7.50052 10.3334V8.58009C6.82719 8.36676 6.33385 7.74009 6.33385 7.00009C6.33385 6.08009 7.08052 5.33343 8.00052 5.33343C8.92052 5.33343 9.66719 6.08009 9.66719 7.00009C9.66719 7.74676 9.17385 8.36676 8.50052 8.58009Z" fill="white"/>
</svg>
