<svg width="16" height="16" viewBox="0 0 16 16" fill="none" xmlns="http://www.w3.org/2000/svg">
<path d="M7.4993 5.38672V7.29339L6.82596 7.06005C6.48596 6.94005 6.2793 6.82672 6.2793 6.24672C6.2793 5.77339 6.63263 5.38672 7.06596 5.38672H7.4993V5.38672Z" fill="white"/>
<path d="M9.72 9.75321C9.72 10.2265 9.36667 10.6132 8.93333 10.6132H8.5V8.70654L9.17333 8.93988C9.51333 9.05988 9.72 9.17321 9.72 9.75321Z" fill="white"/>
<path d="M10.794 1.3335H5.20732C2.78065 1.3335 1.33398 2.78016 1.33398 5.20683V10.7935C1.33398 13.2202 2.78065 14.6668 5.20732 14.6668H10.794C13.2207 14.6668 14.6673 13.2202 14.6673 10.7935V5.20683C14.6673 2.78016 13.2207 1.3335 10.794 1.3335ZM9.50732 8.00016C10.0273 8.18016 10.7207 8.56016 10.7207 9.7535C10.7207 10.7802 9.92065 11.6135 8.93398 11.6135H8.50065V12.0002C8.50065 12.2735 8.27398 12.5002 8.00065 12.5002C7.72732 12.5002 7.50065 12.2735 7.50065 12.0002V11.6135H7.26065C6.16732 11.6135 5.28065 10.6868 5.28065 9.5535C5.28065 9.28016 5.50065 9.0535 5.78065 9.0535C6.05398 9.0535 6.28065 9.28016 6.28065 9.5535C6.28065 10.1402 6.72065 10.6135 7.26065 10.6135H7.50065V8.3535L6.49398 8.00016C5.97398 7.82016 5.28065 7.44016 5.28065 6.24683C5.28065 5.22016 6.08065 4.38683 7.06732 4.38683H7.50065V4.00016C7.50065 3.72683 7.72732 3.50016 8.00065 3.50016C8.27398 3.50016 8.50065 3.72683 8.50065 4.00016V4.38683H8.74065C9.83398 4.38683 10.7207 5.3135 10.7207 6.44683C10.7207 6.72016 10.5007 6.94683 10.2207 6.94683C9.94732 6.94683 9.72065 6.72016 9.72065 6.44683C9.72065 5.86016 9.28065 5.38683 8.74065 5.38683H8.50065V7.64683L9.50732 8.00016Z" fill="white"/>
</svg>
