<svg width="14" height="14" viewBox="0 0 14 14" fill="none" xmlns="http://www.w3.org/2000/svg">
<path d="M7.00065 0.333496C3.32065 0.333496 0.333984 3.32016 0.333984 7.00016C0.333984 10.6802 3.32065 13.6668 7.00065 13.6668C10.6807 13.6668 13.6673 10.6802 13.6673 7.00016C13.6673 3.32016 10.6807 0.333496 7.00065 0.333496ZM4.82065 4.10683C5.36065 4.10683 5.80732 4.54683 5.80732 5.0935C5.80732 5.6335 5.36732 6.08016 4.82065 6.08016C4.28065 6.08016 3.83398 5.64016 3.83398 5.0935C3.83398 4.54683 4.27398 4.10683 4.82065 4.10683ZM4.90065 9.5335C4.80065 9.6335 4.67398 9.68016 4.54732 9.68016C4.42065 9.68016 4.29398 9.6335 4.19398 9.5335C4.00065 9.34016 4.00065 9.02016 4.19398 8.82683L8.56065 4.46016C8.75398 4.26683 9.07398 4.26683 9.26732 4.46016C9.46065 4.6535 9.46065 4.9735 9.26732 5.16683L4.90065 9.5335ZM9.18065 9.8935C8.64065 9.8935 8.19398 9.4535 8.19398 8.90683C8.19398 8.36683 8.63398 7.92016 9.18065 7.92016C9.72065 7.92016 10.1673 8.36016 10.1673 8.90683C10.1673 9.4535 9.72732 9.8935 9.18065 9.8935Z" fill="white"/>
</svg>
